<svg xmlns="http://www.w3.org/2000/svg" xmlns:xlink="http://www.w3.org/1999/xlink" width="300" zoomAndPan="magnify" viewBox="0 0 224.87999 225" height="300" preserveAspectRatio="xMidYMid meet" version="1.0"><path fill="#ffffff" d="M 74.402344 118.839844 C 73.867188 118.113281 72.957031 117.523438 71.855469 117.523438 C 69.816406 117.523438 68.347656 119.078125 68.347656 121.1875 C 68.347656 123.292969 69.816406 124.851562 71.855469 124.851562 C 72.808594 124.851562 73.699219 124.445312 74.167969 124.039062 C 74.199219 124.011719 74.214844 123.972656 74.214844 123.933594 L 74.214844 122.789062 C 74.214844 122.71875 74.160156 122.660156 74.085938 122.660156 L 71.464844 122.660156 C 71.359375 122.660156 71.273438 122.574219 71.273438 122.46875 L 71.273438 120.773438 C 71.273438 120.667969 71.359375 120.582031 71.464844 120.582031 L 76.164062 120.582031 L 76.164062 118.0625 L 74.648438 118.894531 C 74.566406 118.941406 74.460938 118.914062 74.40625 118.839844 Z M 52.328125 120.03125 L 55.140625 120.03125 C 55.945312 120.03125 56.445312 119.578125 56.445312 118.859375 C 56.445312 118.175781 55.957031 117.691406 55.140625 117.691406 L 52.328125 117.691406 C 52.210938 117.6875 52.152344 117.746094 52.152344 117.863281 L 52.152344 119.859375 C 52.152344 119.976562 52.210938 120.035156 52.328125 120.03125 Z M 63.714844 126.605469 C 63.714844 126.691406 63.644531 126.761719 63.558594 126.761719 L 61.496094 126.761719 C 61.410156 126.761719 61.34375 126.691406 61.34375 126.605469 L 61.34375 115.753906 C 61.34375 115.667969 61.410156 115.597656 61.496094 115.597656 L 63.5625 115.597656 C 63.648438 115.597656 63.71875 115.667969 63.71875 115.753906 Z M 75.570312 100.625 L 55.117188 115.597656 L 55.640625 115.597656 C 57.765625 115.597656 58.851562 116.953125 58.851562 118.441406 C 58.851562 119.601562 58.246094 120.457031 57.433594 120.832031 C 57.3125 120.898438 57.304688 121.089844 57.441406 121.144531 C 58.390625 121.53125 59.070312 122.546875 59.070312 123.730469 C 59.070312 125.417969 57.96875 126.757812 55.828125 126.757812 L 49.949219 126.757812 C 49.832031 126.761719 49.777344 126.703125 49.777344 126.585938 L 49.777344 119.503906 L 34.605469 130.613281 C 34.316406 130.824219 34.464844 131.285156 34.828125 131.285156 L 75.792969 131.285156 C 75.996094 131.285156 76.164062 131.117188 76.164062 130.910156 L 76.164062 125.28125 C 75.066406 126.304688 73.628906 126.945312 71.855469 126.945312 C 68.582031 126.945312 65.90625 124.6875 65.90625 121.171875 C 65.90625 117.640625 68.582031 115.398438 71.855469 115.398438 C 73.917969 115.398438 75.28125 116.332031 76.164062 117.476562 L 76.164062 100.925781 C 76.164062 100.617188 75.816406 100.445312 75.570312 100.625 Z M 52.324219 124.667969 L 55.226562 124.667969 C 56.113281 124.667969 56.644531 124.199219 56.644531 123.394531 C 56.644531 122.691406 56.15625 122.121094 55.226562 122.121094 L 52.324219 122.121094 C 52.207031 122.117188 52.148438 122.175781 52.152344 122.292969 L 52.152344 124.488281 C 52.148438 124.609375 52.207031 124.664062 52.324219 124.664062 Z M 88.039062 124.328125 L 86.761719 123.664062 C 86.664062 123.617188 86.582031 123.636719 86.523438 123.730469 C 85.984375 124.578125 84.988281 125.210938 83.902344 125.210938 C 81.773438 125.210938 80.195312 123.503906 80.195312 121.175781 C 80.195312 118.816406 81.785156 117.144531 83.902344 117.144531 C 84.988281 117.144531 85.984375 117.757812 86.523438 118.617188 C 86.585938 118.714844 86.664062 118.734375 86.765625 118.683594 L 88.03125 117.992188 C 88.132812 117.941406 88.164062 117.820312 88.105469 117.726562 C 87.300781 116.460938 85.972656 115.402344 83.902344 115.402344 C 80.726562 115.402344 78.273438 117.730469 78.273438 121.175781 C 78.273438 124.609375 80.738281 126.949219 83.902344 126.949219 C 85.96875 126.949219 87.285156 125.863281 88.113281 124.601562 C 88.175781 124.503906 88.140625 124.382812 88.039062 124.332031 Z M 94.703125 125.207031 C 92.527344 125.207031 91.136719 123.46875 91.136719 121.175781 C 91.148438 118.855469 92.539062 117.140625 94.71875 117.140625 C 96.878906 117.140625 98.285156 118.855469 98.285156 121.175781 C 98.285156 123.46875 96.878906 125.207031 94.71875 125.207031 Z M 93.179688 115.601562 C 90.785156 116.242188 89.203125 118.414062 89.203125 121.179688 C 89.203125 124.507812 91.480469 126.953125 94.707031 126.953125 C 97.457031 126.953125 99.527344 125.164062 100.070312 122.546875 C 100.953125 118.304688 97.234375 114.503906 93.183594 115.589844 Z M 113.597656 115.589844 L 111.148438 115.589844 C 111.027344 115.585938 110.945312 115.640625 110.902344 115.753906 L 107.945312 123.414062 L 104.96875 115.753906 C 104.929688 115.65625 104.832031 115.589844 104.726562 115.589844 L 102.277344 115.589844 C 102.203125 115.589844 102.148438 115.648438 102.148438 115.71875 L 102.148438 126.617188 C 102.148438 126.691406 102.207031 126.75 102.277344 126.75 L 103.972656 126.75 C 104.046875 126.75 104.101562 126.691406 104.101562 126.617188 L 104.101562 118.132812 L 107.503906 126.691406 C 107.519531 126.726562 107.554688 126.75 107.589844 126.75 L 108.296875 126.75 C 108.335938 126.75 108.371094 126.726562 108.382812 126.691406 L 111.769531 118.132812 L 111.769531 126.617188 C 111.769531 126.691406 111.828125 126.75 111.902344 126.75 L 113.621094 126.75 C 113.695312 126.75 113.753906 126.691406 113.753906 126.617188 L 113.753906 115.71875 C 113.753906 115.644531 113.695312 115.589844 113.621094 115.589844 Z M 138.605469 115.589844 L 131.367188 115.589844 C 131.246094 115.589844 131.167969 115.679688 131.167969 115.789062 L 131.167969 126.5625 C 131.167969 126.683594 131.257812 126.761719 131.367188 126.761719 L 138.605469 126.761719 C 138.726562 126.761719 138.804688 126.671875 138.804688 126.5625 L 138.804688 125.242188 C 138.804688 125.117188 138.714844 125.039062 138.605469 125.039062 L 133.328125 125.039062 C 133.203125 125.039062 133.125 124.949219 133.125 124.835938 L 133.125 122.128906 C 133.125 122.003906 133.214844 121.925781 133.328125 121.925781 L 138.488281 121.925781 C 138.613281 121.925781 138.691406 121.835938 138.691406 121.722656 L 138.691406 120.40625 C 138.691406 120.28125 138.601562 120.203125 138.488281 120.203125 L 133.328125 120.203125 C 133.203125 120.203125 133.125 120.113281 133.125 120 L 133.125 117.527344 C 133.125 117.402344 133.214844 117.324219 133.328125 117.324219 L 138.605469 117.324219 C 138.730469 117.324219 138.808594 117.234375 138.808594 117.121094 L 138.808594 115.800781 C 138.808594 115.679688 138.71875 115.601562 138.605469 115.601562 Z M 146.234375 120.859375 L 143.753906 120.859375 C 143.632812 120.859375 143.554688 120.769531 143.554688 120.660156 L 143.554688 117.507812 C 143.554688 117.386719 143.644531 117.308594 143.753906 117.308594 L 146.246094 117.308594 C 147.347656 117.308594 148.152344 117.996094 148.152344 119.066406 C 148.152344 120.167969 147.347656 120.859375 146.246094 120.859375 Z M 147.769531 122.308594 C 149.019531 121.992188 150.144531 120.925781 150.144531 119.085938 C 150.144531 117.011719 148.691406 115.589844 146.472656 115.589844 L 141.785156 115.589844 C 141.660156 115.589844 141.585938 115.675781 141.585938 115.789062 L 141.585938 126.550781 C 141.585938 126.671875 141.675781 126.75 141.785156 126.75 L 143.339844 126.75 C 143.460938 126.75 143.539062 126.660156 143.539062 126.550781 L 143.539062 122.78125 C 143.539062 122.660156 143.628906 122.582031 143.738281 122.582031 L 145.378906 122.582031 C 145.449219 122.582031 145.5 122.621094 145.550781 122.679688 L 147.890625 126.652344 C 147.929688 126.714844 147.992188 126.75 148.0625 126.75 L 149.863281 126.75 C 150.019531 126.75 150.117188 126.578125 150.035156 126.445312 L 147.636719 122.605469 C 147.5625 122.488281 147.628906 122.339844 147.765625 122.304688 Z M 165.515625 117.3125 L 170.808594 117.3125 C 170.9375 117.3125 171.003906 117.246094 171.003906 117.113281 L 171.003906 115.796875 C 171.003906 115.671875 170.914062 115.601562 170.808594 115.601562 L 163.5625 115.601562 C 163.429688 115.601562 163.363281 115.664062 163.363281 115.796875 L 163.363281 126.566406 C 163.363281 126.6875 163.453125 126.761719 163.5625 126.761719 L 170.808594 126.761719 C 170.9375 126.761719 171.003906 126.695312 171.003906 126.5625 L 171.003906 125.234375 C 171.003906 125.101562 170.9375 125.035156 170.808594 125.035156 L 165.53125 125.035156 C 165.402344 125.035156 165.335938 124.96875 165.335938 124.839844 L 165.335938 122.121094 C 165.335938 121.996094 165.425781 121.925781 165.53125 121.925781 L 170.703125 121.925781 C 170.835938 121.925781 170.902344 121.859375 170.902344 121.726562 L 170.902344 120.386719 C 170.902344 120.261719 170.8125 120.191406 170.707031 120.191406 L 165.515625 120.191406 C 165.382812 120.191406 165.320312 120.125 165.320312 119.992188 L 165.320312 117.507812 C 165.320312 117.378906 165.382812 117.3125 165.515625 117.3125 Z M 161.355469 124.28125 L 160.078125 123.617188 C 159.996094 123.574219 159.890625 123.605469 159.839844 123.6875 C 159.300781 124.535156 158.300781 125.164062 157.21875 125.164062 C 155.089844 125.164062 153.511719 123.457031 153.511719 121.132812 C 153.511719 118.773438 155.101562 117.097656 157.21875 117.097656 C 158.300781 117.097656 159.300781 117.710938 159.839844 118.574219 C 159.890625 118.652344 159.996094 118.695312 160.078125 118.640625 L 161.347656 117.949219 C 161.445312 117.894531 161.480469 117.773438 161.417969 117.679688 C 160.617188 116.417969 159.285156 115.359375 157.21875 115.359375 C 154.042969 115.359375 151.589844 117.683594 151.589844 121.132812 C 151.589844 124.5625 154.054688 126.90625 157.21875 126.90625 C 159.285156 126.90625 160.597656 125.820312 161.429688 124.554688 C 161.460938 124.507812 161.46875 124.457031 161.453125 124.402344 C 161.4375 124.347656 161.40625 124.308594 161.355469 124.285156 Z M 128.046875 115.589844 L 125.601562 115.589844 C 125.480469 115.585938 125.398438 115.640625 125.355469 115.753906 L 122.394531 123.414062 L 119.421875 115.753906 C 119.382812 115.65625 119.285156 115.589844 119.175781 115.589844 L 116.730469 115.589844 C 116.65625 115.589844 116.597656 115.648438 116.597656 115.71875 L 116.597656 126.617188 C 116.597656 126.691406 116.65625 126.75 116.730469 126.75 L 118.421875 126.75 C 118.496094 126.75 118.554688 126.691406 118.554688 126.617188 L 118.554688 118.132812 L 121.945312 126.6875 C 121.957031 126.726562 121.992188 126.75 122.03125 126.75 L 122.738281 126.75 C 122.773438 126.75 122.8125 126.722656 122.824219 126.6875 L 126.210938 118.128906 L 126.210938 126.617188 C 126.210938 126.691406 126.269531 126.75 126.339844 126.75 L 128.035156 126.75 C 128.105469 126.75 128.164062 126.6875 128.164062 126.617188 L 128.164062 115.71875 C 128.164062 115.644531 128.105469 115.585938 128.035156 115.585938 Z M 128.046875 115.589844 " fill-opacity="1" fill-rule="evenodd"/></svg>