<svg xmlns="http://www.w3.org/2000/svg" xmlns:xlink="http://www.w3.org/1999/xlink" width="300" zoomAndPan="magnify" viewBox="0 0 224.87999 225" height="300" preserveAspectRatio="xMidYMid meet" version="1.0"><defs><clipPath id="3011da925a"><path d="M 41.246094 74.253906 L 77 74.253906 L 77 115 L 41.246094 115 Z M 41.246094 74.253906 " clip-rule="nonzero"/></clipPath><clipPath id="bfac49d513"><path d="M 167 90 L 185.917969 90 L 185.917969 115.480469 L 167 115.480469 Z M 167 90 " clip-rule="nonzero"/></clipPath></defs><g clip-path="url(#3011da925a)"><path fill="#95bf47" d="M 72.34375 82.074219 C 72.3125 81.875 72.140625 81.757812 71.996094 81.757812 C 71.851562 81.757812 68.988281 81.699219 68.988281 81.699219 C 68.988281 81.699219 66.589844 79.390625 66.355469 79.132812 C 66.125 78.898438 65.664062 78.957031 65.488281 79.015625 C 65.488281 79.015625 65.027344 79.160156 64.273438 79.390625 C 64.160156 78.988281 63.957031 78.496094 63.695312 77.976562 C 62.855469 76.359375 61.585938 75.492188 60.082031 75.492188 C 59.964844 75.492188 59.878906 75.492188 59.761719 75.523438 C 59.703125 75.464844 59.675781 75.40625 59.617188 75.378906 C 58.953125 74.683594 58.113281 74.339844 57.101562 74.367188 C 55.164062 74.425781 53.226562 75.839844 51.636719 78.324219 C 50.539062 80.082031 49.699219 82.277344 49.4375 83.980469 C 47.210938 84.675781 45.648438 85.164062 45.589844 85.164062 C 44.464844 85.511719 44.433594 85.539062 44.289062 86.609375 C 44.234375 87.417969 41.28125 110.195312 41.28125 110.195312 L 66.039062 114.46875 L 76.769531 111.8125 C 76.738281 111.8125 72.371094 82.277344 72.34375 82.074219 Z M 63.03125 79.796875 C 62.453125 79.96875 61.816406 80.171875 61.121094 80.402344 C 61.121094 79.417969 60.976562 78.035156 60.542969 76.878906 C 62.019531 77.109375 62.742188 78.785156 63.03125 79.796875 Z M 59.820312 80.777344 C 58.519531 81.179688 57.101562 81.613281 55.683594 82.046875 C 56.089844 80.515625 56.839844 79.015625 57.765625 78.003906 C 58.113281 77.628906 58.605469 77.226562 59.15625 76.996094 C 59.734375 78.121094 59.847656 79.707031 59.820312 80.777344 Z M 57.160156 75.667969 C 57.621094 75.667969 58 75.753906 58.316406 75.984375 C 57.796875 76.242188 57.277344 76.648438 56.8125 77.167969 C 55.570312 78.496094 54.613281 80.546875 54.238281 82.539062 C 53.054688 82.914062 51.894531 83.261719 50.855469 83.578125 C 51.550781 80.429688 54.179688 75.753906 57.160156 75.667969 Z M 57.160156 75.667969 " fill-opacity="1" fill-rule="nonzero"/></g><path fill="#5e8e3e" d="M 71.996094 81.757812 C 71.851562 81.757812 68.988281 81.699219 68.988281 81.699219 C 68.988281 81.699219 66.589844 79.390625 66.355469 79.132812 C 66.269531 79.042969 66.152344 78.988281 66.039062 78.988281 L 66.039062 114.46875 L 76.769531 111.8125 C 76.769531 111.8125 72.402344 82.277344 72.371094 82.074219 C 72.3125 81.875 72.140625 81.757812 71.996094 81.757812 Z M 71.996094 81.757812 " fill-opacity="1" fill-rule="nonzero"/><path fill="#ffffff" d="M 60.082031 87.273438 L 58.835938 91.921875 C 58.835938 91.921875 57.449219 91.285156 55.800781 91.402344 C 53.371094 91.546875 53.371094 93.074219 53.371094 93.453125 C 53.515625 95.53125 58.980469 95.992188 59.300781 100.871094 C 59.53125 104.710938 57.277344 107.339844 53.980469 107.539062 C 50.046875 107.742188 47.875 105.433594 47.875 105.433594 L 48.714844 101.882812 C 48.714844 101.882812 50.914062 103.527344 52.648438 103.410156 C 53.777344 103.355469 54.210938 102.402344 54.152344 101.765625 C 53.980469 99.050781 49.523438 99.226562 49.234375 94.75 C 49.003906 90.996094 51.460938 87.214844 56.898438 86.867188 C 59.011719 86.722656 60.082031 87.273438 60.082031 87.273438 Z M 60.082031 87.273438 " fill-opacity="1" fill-rule="nonzero"/><path fill="#ffffff" d="M 91.285156 97.175781 C 90.042969 96.511719 89.40625 95.933594 89.40625 95.15625 C 89.40625 94.171875 90.300781 93.539062 91.691406 93.539062 C 93.308594 93.539062 94.757812 94.203125 94.757812 94.203125 L 95.882812 90.738281 C 95.882812 90.738281 94.84375 89.929688 91.777344 89.929688 C 87.496094 89.929688 84.519531 92.382812 84.519531 95.820312 C 84.519531 97.78125 85.90625 99.253906 87.757812 100.324219 C 89.261719 101.160156 89.78125 101.765625 89.78125 102.660156 C 89.78125 103.585938 89.03125 104.335938 87.640625 104.335938 C 85.589844 104.335938 83.621094 103.265625 83.621094 103.265625 L 82.40625 106.730469 C 82.40625 106.730469 84.199219 107.945312 87.238281 107.945312 C 91.632812 107.945312 94.8125 105.777344 94.8125 101.882812 C 94.785156 99.773438 93.195312 98.273438 91.285156 97.175781 Z M 91.285156 97.175781 " fill-opacity="1" fill-rule="nonzero"/><path fill="#ffffff" d="M 108.8125 89.871094 C 106.644531 89.871094 104.9375 90.910156 103.636719 92.46875 L 103.578125 92.441406 L 105.457031 82.625 L 100.570312 82.625 L 95.796875 107.628906 L 100.683594 107.628906 L 102.304688 99.082031 C 102.941406 95.847656 104.617188 93.855469 106.179688 93.855469 C 107.277344 93.855469 107.710938 94.605469 107.710938 95.675781 C 107.710938 96.339844 107.65625 97.175781 107.511719 97.839844 L 105.660156 107.628906 L 110.546875 107.628906 L 112.457031 97.523438 C 112.65625 96.453125 112.800781 95.183594 112.800781 94.316406 C 112.832031 91.546875 111.386719 89.871094 108.8125 89.871094 Z M 108.8125 89.871094 " fill-opacity="1" fill-rule="nonzero"/><path fill="#ffffff" d="M 123.90625 89.871094 C 118.007812 89.871094 114.105469 95.183594 114.105469 101.101562 C 114.105469 104.882812 116.445312 107.945312 120.84375 107.945312 C 126.625 107.945312 130.53125 102.777344 130.53125 96.714844 C 130.558594 93.21875 128.507812 89.871094 123.90625 89.871094 Z M 121.507812 104.21875 C 119.832031 104.21875 119.136719 102.804688 119.136719 101.015625 C 119.136719 98.214844 120.582031 93.652344 123.242188 93.652344 C 124.976562 93.652344 125.554688 95.15625 125.554688 96.597656 C 125.554688 99.601562 124.082031 104.21875 121.507812 104.21875 Z M 121.507812 104.21875 " fill-opacity="1" fill-rule="nonzero"/><path fill="#ffffff" d="M 143.082031 89.871094 C 139.785156 89.871094 137.90625 92.789062 137.90625 92.789062 L 137.847656 92.789062 L 138.136719 90.160156 L 133.796875 90.160156 C 133.597656 91.921875 133.191406 94.636719 132.816406 96.65625 L 129.402344 114.554688 L 134.289062 114.554688 L 135.648438 107.308594 L 135.765625 107.308594 C 135.765625 107.308594 136.777344 107.945312 138.628906 107.945312 C 144.382812 107.945312 148.144531 102.054688 148.144531 96.109375 C 148.144531 92.816406 146.667969 89.871094 143.082031 89.871094 Z M 138.398438 104.277344 C 137.125 104.277344 136.371094 103.554688 136.371094 103.554688 L 137.183594 98.996094 C 137.761719 95.933594 139.351562 93.914062 141.058594 93.914062 C 142.5625 93.914062 143.023438 95.300781 143.023438 96.597656 C 143.023438 99.773438 141.144531 104.277344 138.398438 104.277344 Z M 138.398438 104.277344 " fill-opacity="1" fill-rule="nonzero"/><path fill="#ffffff" d="M 155.140625 82.855469 C 153.582031 82.855469 152.335938 84.097656 152.335938 85.683594 C 152.335938 87.128906 153.261719 88.140625 154.648438 88.140625 L 154.707031 88.140625 C 156.242188 88.140625 157.542969 87.101562 157.570312 85.308594 C 157.570312 83.894531 156.617188 82.855469 155.140625 82.855469 Z M 155.140625 82.855469 " fill-opacity="1" fill-rule="nonzero"/><path fill="#ffffff" d="M 148.289062 107.597656 L 153.175781 107.597656 L 156.5 90.277344 L 151.585938 90.277344 Z M 148.289062 107.597656 " fill-opacity="1" fill-rule="nonzero"/><path fill="#ffffff" d="M 168.964844 90.246094 L 165.554688 90.246094 L 165.726562 89.4375 C 166.015625 87.765625 167 86.292969 168.648438 86.292969 C 169.515625 86.292969 170.210938 86.550781 170.210938 86.550781 L 171.164062 82.710938 C 171.164062 82.710938 170.324219 82.277344 168.503906 82.277344 C 166.769531 82.277344 165.03125 82.769531 163.703125 83.894531 C 162.023438 85.308594 161.246094 87.359375 160.867188 89.4375 L 160.722656 90.246094 L 158.4375 90.246094 L 157.714844 93.941406 L 160 93.941406 L 157.398438 107.628906 L 162.285156 107.628906 L 164.886719 93.941406 L 168.273438 93.941406 Z M 168.964844 90.246094 " fill-opacity="1" fill-rule="nonzero"/><g clip-path="url(#bfac49d513)"><path fill="#ffffff" d="M 180.765625 90.277344 C 180.765625 90.277344 177.699219 97.984375 176.339844 102.199219 L 176.28125 102.199219 C 176.195312 100.84375 175.066406 90.277344 175.066406 90.277344 L 169.921875 90.277344 L 172.871094 106.183594 C 172.929688 106.53125 172.898438 106.761719 172.753906 106.992188 C 172.175781 108.089844 171.222656 109.15625 170.09375 109.9375 C 169.167969 110.601562 168.128906 111.035156 167.316406 111.324219 L 168.675781 115.480469 C 169.660156 115.277344 171.742188 114.441406 173.476562 112.824219 C 175.703125 110.746094 177.785156 107.511719 179.898438 103.125 L 185.882812 90.277344 Z M 180.765625 90.277344 " fill-opacity="1" fill-rule="nonzero"/></g></svg>