<svg xmlns="http://www.w3.org/2000/svg" xmlns:xlink="http://www.w3.org/1999/xlink" width="300" zoomAndPan="magnify" viewBox="0 0 224.87999 225" height="300" preserveAspectRatio="xMidYMid meet" version="1.0"><path fill="#ffffff" d="M 84.878906 100.3125 L 86.535156 96.453125 C 88.324219 97.792969 90.703125 98.488281 93.054688 98.488281 C 94.789062 98.488281 95.886719 97.820312 95.886719 96.800781 C 95.859375 93.957031 85.496094 96.183594 85.414062 89.050781 C 85.386719 85.429688 88.59375 82.644531 93.132812 82.644531 C 95.832031 82.644531 98.53125 83.3125 100.453125 84.839844 L 98.902344 88.785156 C 97.140625 87.65625 94.949219 86.851562 92.867188 86.851562 C 91.449219 86.851562 90.515625 87.523438 90.515625 88.382812 C 90.542969 91.167969 100.988281 89.640625 101.09375 96.453125 C 101.09375 100.152344 97.96875 102.753906 93.480469 102.753906 C 90.195312 102.753906 87.175781 101.976562 84.878906 100.3125 " fill-opacity="1" fill-rule="nonzero"/><path fill="#ffffff" d="M 148.425781 95.058594 C 147.597656 96.503906 146.046875 97.496094 144.257812 97.496094 C 141.613281 97.496094 139.476562 95.351562 139.476562 92.699219 C 139.476562 90.042969 141.613281 87.898438 144.257812 87.898438 C 146.046875 87.898438 147.597656 88.890625 148.425781 90.339844 L 152.992188 87.792969 C 151.285156 84.734375 147.996094 82.644531 144.257812 82.644531 C 138.730469 82.644531 134.242188 87.148438 134.242188 92.699219 C 134.242188 98.25 138.730469 102.753906 144.257812 102.753906 C 148.023438 102.753906 151.285156 100.6875 152.992188 97.605469 Z M 148.425781 95.058594 " fill-opacity="1" fill-rule="nonzero"/><path fill="#ffffff" d="M 103.390625 74.304688 L 109.105469 74.304688 L 109.105469 102.378906 L 103.390625 102.378906 Z M 103.390625 74.304688 " fill-opacity="1" fill-rule="nonzero"/><path fill="#ffffff" d="M 155.238281 74.304688 L 155.238281 102.378906 L 160.953125 102.378906 L 160.953125 93.957031 L 167.738281 102.378906 L 175.054688 102.378906 L 166.429688 92.375 L 174.414062 83.046875 L 167.417969 83.046875 L 160.953125 90.792969 L 160.953125 74.304688 Z M 155.238281 74.304688 " fill-opacity="1" fill-rule="nonzero"/><path fill="#ffffff" d="M 126.09375 95.109375 C 125.265625 96.480469 123.558594 97.496094 121.632812 97.496094 C 118.988281 97.496094 116.851562 95.351562 116.851562 92.699219 C 116.851562 90.042969 118.988281 87.898438 121.632812 87.898438 C 123.558594 87.898438 125.265625 88.972656 126.09375 90.363281 Z M 126.09375 83.046875 L 126.09375 85.324219 C 125.160156 83.742188 122.835938 82.644531 120.40625 82.644531 C 115.382812 82.644531 111.429688 87.09375 111.429688 92.671875 C 111.429688 98.25 115.382812 102.753906 120.40625 102.753906 C 122.835938 102.753906 125.160156 101.652344 126.09375 100.070312 L 126.09375 102.351562 L 131.8125 102.351562 L 131.8125 83.046875 Z M 126.09375 83.046875 " fill-opacity="1" fill-rule="nonzero"/><path fill="#ffffff" d="M 49.542969 95.085938 C 49.542969 97.042969 47.964844 98.625 46.015625 98.625 C 44.066406 98.625 42.488281 97.042969 42.488281 95.085938 C 42.488281 93.128906 44.066406 91.546875 46.015625 91.546875 L 49.542969 91.546875 Z M 49.542969 95.085938 " fill-opacity="1" fill-rule="nonzero"/><path fill="#ffffff" d="M 51.304688 95.085938 C 51.304688 93.128906 52.878906 91.546875 54.832031 91.546875 C 56.78125 91.546875 58.355469 93.128906 58.355469 95.085938 L 58.355469 103.933594 C 58.355469 105.890625 56.78125 107.472656 54.832031 107.472656 C 52.878906 107.472656 51.304688 105.890625 51.304688 103.933594 Z M 51.304688 95.085938 " fill-opacity="1" fill-rule="nonzero"/><path fill="#ffffff" d="M 54.832031 80.875 C 52.878906 80.875 51.304688 79.292969 51.304688 77.332031 C 51.304688 75.375 52.878906 73.792969 54.832031 73.792969 C 56.78125 73.792969 58.355469 75.375 58.355469 77.332031 L 58.355469 80.875 Z M 54.832031 80.875 " fill-opacity="1" fill-rule="nonzero"/><path fill="#ffffff" d="M 54.832031 82.667969 C 56.78125 82.667969 58.355469 84.25 58.355469 86.210938 C 58.355469 88.167969 56.78125 89.75 54.832031 89.75 L 45.988281 89.75 C 44.039062 89.75 42.464844 88.167969 42.464844 86.210938 C 42.464844 84.25 44.039062 82.667969 45.988281 82.667969 Z M 54.832031 82.667969 " fill-opacity="1" fill-rule="nonzero"/><path fill="#ffffff" d="M 68.960938 86.210938 C 68.960938 84.25 70.535156 82.667969 72.488281 82.667969 C 74.4375 82.667969 76.011719 84.25 76.011719 86.210938 C 76.011719 88.167969 74.4375 89.75 72.488281 89.75 L 68.960938 89.75 Z M 68.960938 86.210938 " fill-opacity="1" fill-rule="nonzero"/><path fill="#ffffff" d="M 67.199219 86.210938 C 67.199219 88.167969 65.621094 89.75 63.671875 89.75 C 61.722656 89.75 60.144531 88.167969 60.144531 86.210938 L 60.144531 77.332031 C 60.144531 75.375 61.722656 73.792969 63.671875 73.792969 C 65.621094 73.792969 67.199219 75.375 67.199219 77.332031 Z M 67.199219 86.210938 " fill-opacity="1" fill-rule="nonzero"/><path fill="#ffffff" d="M 63.671875 100.394531 C 65.621094 100.394531 67.199219 101.976562 67.199219 103.933594 C 67.199219 105.890625 65.621094 107.472656 63.671875 107.472656 C 61.722656 107.472656 60.144531 105.890625 60.144531 103.933594 L 60.144531 100.394531 Z M 63.671875 100.394531 " fill-opacity="1" fill-rule="nonzero"/><path fill="#ffffff" d="M 63.671875 98.625 C 61.722656 98.625 60.144531 97.042969 60.144531 95.085938 C 60.144531 93.128906 61.722656 91.546875 63.671875 91.546875 L 72.511719 91.546875 C 74.464844 91.546875 76.039062 93.128906 76.039062 95.085938 C 76.039062 97.042969 74.464844 98.625 72.511719 98.625 Z M 63.671875 98.625 " fill-opacity="1" fill-rule="nonzero"/></svg>