<svg xmlns="http://www.w3.org/2000/svg" xmlns:xlink="http://www.w3.org/1999/xlink" width="300" zoomAndPan="magnify" viewBox="0 0 224.87999 225" height="300" preserveAspectRatio="xMidYMid meet" version="1.0"><path fill="#ffffff" d="M 160.28125 126.589844 C 160.28125 119.789062 156.984375 114.425781 150.683594 114.425781 C 144.355469 114.425781 140.527344 119.789062 140.527344 126.539062 C 140.527344 134.535156 145.046875 138.570312 151.535156 138.570312 C 154.699219 138.570312 157.089844 137.855469 158.898438 136.84375 L 158.898438 131.53125 C 157.089844 132.433594 155.015625 132.992188 152.382812 132.992188 C 149.804688 132.992188 147.519531 132.089844 147.226562 128.953125 L 160.226562 128.953125 C 160.226562 128.609375 160.28125 127.226562 160.28125 126.589844 Z M 147.144531 124.066406 C 147.144531 121.066406 148.980469 119.816406 150.65625 119.816406 C 152.277344 119.816406 154.007812 121.066406 154.007812 124.066406 Z M 147.144531 124.066406 " fill-opacity="1" fill-rule="evenodd"/><path fill="#ffffff" d="M 130.261719 114.425781 C 127.65625 114.425781 125.980469 115.648438 125.050781 116.496094 L 124.707031 114.851562 L 118.855469 114.851562 L 118.855469 145.824219 L 125.503906 144.414062 L 125.53125 136.898438 C 126.488281 137.589844 127.894531 138.570312 130.234375 138.570312 C 134.996094 138.570312 139.328125 134.746094 139.328125 126.324219 C 139.300781 118.621094 134.914062 114.425781 130.261719 114.425781 Z M 128.667969 132.726562 C 127.097656 132.726562 126.167969 132.167969 125.53125 131.480469 L 125.503906 121.625 C 126.195312 120.851562 127.152344 120.320312 128.667969 120.320312 C 131.085938 120.320312 132.761719 123.03125 132.761719 126.511719 C 132.761719 130.070312 131.113281 132.726562 128.667969 132.726562 Z M 128.667969 132.726562 " fill-opacity="1" fill-rule="evenodd"/><path fill="#ffffff" d="M 109.710938 112.859375 L 116.382812 111.421875 L 116.382812 106.03125 L 109.710938 107.4375 Z M 109.710938 112.859375 " fill-opacity="1" fill-rule="evenodd"/><path fill="#ffffff" d="M 109.710938 114.875 L 116.382812 114.875 L 116.382812 138.121094 L 109.710938 138.121094 Z M 109.710938 114.875 " fill-opacity="1" fill-rule="evenodd"/><path fill="#ffffff" d="M 102.558594 116.84375 L 102.132812 114.875 L 96.390625 114.875 L 96.390625 138.121094 L 103.035156 138.121094 L 103.035156 122.367188 C 104.605469 120.320312 107.265625 120.695312 108.089844 120.984375 L 108.089844 114.875 C 107.238281 114.558594 104.125 113.972656 102.558594 116.84375 Z M 102.558594 116.84375 " fill-opacity="1" fill-rule="evenodd"/><path fill="#ffffff" d="M 89.261719 109.113281 L 82.777344 110.492188 L 82.75 131.769531 C 82.75 135.703125 85.699219 138.597656 89.636719 138.597656 C 91.816406 138.597656 93.410156 138.199219 94.289062 137.722656 L 94.289062 132.328125 C 93.4375 132.675781 89.238281 133.894531 89.238281 129.964844 L 89.238281 120.535156 L 94.289062 120.535156 L 94.289062 114.875 L 89.238281 114.875 Z M 89.261719 109.113281 " fill-opacity="1" fill-rule="evenodd"/><path fill="#ffffff" d="M 71.289062 121.625 C 71.289062 120.585938 72.140625 120.1875 73.550781 120.1875 C 75.570312 120.1875 78.121094 120.800781 80.144531 121.890625 L 80.144531 115.648438 C 77.9375 114.769531 75.757812 114.425781 73.550781 114.425781 C 68.152344 114.425781 64.5625 117.242188 64.5625 121.941406 C 64.5625 129.273438 74.667969 128.105469 74.667969 131.265625 C 74.667969 132.488281 73.601562 132.886719 72.113281 132.886719 C 69.90625 132.886719 67.089844 131.984375 64.855469 130.761719 L 64.855469 137.082031 C 67.328125 138.144531 69.828125 138.597656 72.113281 138.597656 C 77.644531 138.597656 81.445312 135.863281 81.445312 131.105469 C 81.417969 123.191406 71.289062 124.597656 71.289062 121.625 Z M 71.289062 121.625 " fill-opacity="1" fill-rule="evenodd"/></svg>