<svg xmlns="http://www.w3.org/2000/svg" xmlns:xlink="http://www.w3.org/1999/xlink" width="300" zoomAndPan="magnify" viewBox="0 0 224.87999 225" height="300" preserveAspectRatio="xMidYMid meet" version="1.0"><defs><clipPath id="162420271e"><path d="M 82 80.28125 L 136 80.28125 L 136 122 L 82 122 Z M 82 80.28125 " clip-rule="nonzero"/></clipPath><clipPath id="a20f8b0efc"><path d="M 60.890625 130 L 157.589844 130 L 157.589844 149.242188 L 60.890625 149.242188 Z M 60.890625 130 " clip-rule="nonzero"/></clipPath></defs><g clip-path="url(#162420271e)"><path fill="#fdfdfd" d="M 107.058594 91.210938 L 107.058594 121.253906 L 82.3125 121.253906 Z M 107.058594 80.378906 C 107.058594 87.273438 101.519531 92.8125 94.625 92.8125 C 87.730469 92.8125 82.3125 87.273438 82.3125 80.378906 Z M 111.121094 121.128906 C 111.121094 114.234375 116.664062 108.695312 123.558594 108.695312 C 130.453125 108.695312 135.992188 114.234375 135.992188 121.128906 Z M 111.121094 110.417969 L 111.121094 80.378906 L 135.992188 80.378906 Z M 111.121094 110.417969 " fill-opacity="1" fill-rule="nonzero"/></g><g clip-path="url(#a20f8b0efc)"><path fill="#fdfdfd" d="M 128.113281 141.691406 C 127.867188 139.964844 126.757812 138.734375 124.789062 138.734375 C 122.941406 138.734375 121.585938 139.84375 121.21875 141.691406 Z M 125.035156 146.738281 C 126.636719 146.738281 127.742188 146.121094 128.480469 145.382812 L 130.207031 147.230469 C 129.097656 148.335938 127.496094 149.199219 125.035156 149.199219 C 120.847656 149.199219 118.140625 146.492188 118.140625 142.675781 C 118.140625 138.980469 120.972656 136.148438 124.542969 136.148438 C 128.726562 136.148438 130.945312 139.351562 130.820312 143.660156 L 121.21875 143.660156 C 121.585938 145.628906 122.820312 146.738281 125.035156 146.738281 M 60.890625 146.613281 L 68.402344 138.980469 L 61.015625 138.980469 L 61.015625 136.519531 L 71.847656 136.519531 L 71.847656 138.980469 L 64.339844 146.613281 L 71.972656 146.613281 L 71.972656 149.078125 L 60.890625 149.078125 Z M 83.421875 141.691406 C 83.175781 139.964844 82.066406 138.734375 80.097656 138.734375 C 78.25 138.734375 76.898438 139.84375 76.527344 141.691406 Z M 80.46875 146.738281 C 82.066406 146.738281 83.175781 146.121094 83.914062 145.382812 L 85.636719 147.230469 C 84.53125 148.335938 82.929688 149.199219 80.46875 149.199219 C 76.28125 149.199219 73.574219 146.492188 73.574219 142.675781 C 73.574219 138.980469 76.402344 136.148438 79.972656 136.148438 C 84.160156 136.148438 86.375 139.351562 86.253906 143.660156 L 76.527344 143.660156 C 77.019531 145.628906 78.25 146.738281 80.46875 146.738281 M 113.214844 142.796875 C 113.214844 140.582031 111.492188 138.734375 109.277344 138.734375 C 107.058594 138.734375 105.335938 140.457031 105.335938 142.796875 C 105.335938 145.136719 107.058594 146.859375 109.277344 146.859375 C 111.492188 146.859375 113.214844 145.011719 113.214844 142.796875 M 102.628906 142.796875 C 102.628906 138.734375 105.582031 136.273438 108.90625 136.273438 C 110.507812 136.273438 112.109375 137.011719 113.09375 138.121094 L 113.09375 130.730469 L 115.800781 130.730469 L 115.800781 148.953125 L 113.09375 148.953125 L 113.09375 147.230469 C 112.109375 148.460938 110.507812 149.199219 108.90625 149.199219 C 105.707031 149.324219 102.628906 146.738281 102.628906 142.796875 M 132.667969 146.492188 L 135.128906 145.261719 C 135.867188 146.367188 136.855469 147.105469 138.332031 147.105469 C 139.808594 147.105469 140.671875 146.367188 140.671875 145.507812 C 140.671875 144.519531 139.191406 144.273438 137.59375 143.90625 C 135.5 143.414062 133.285156 142.796875 133.285156 140.210938 C 133.285156 138.242188 135.128906 136.394531 138.085938 136.394531 C 140.425781 136.394531 142.148438 137.257812 143.132812 138.859375 L 140.917969 140.089844 C 140.300781 139.226562 139.316406 138.613281 138.085938 138.613281 C 136.609375 138.613281 135.867188 139.351562 135.867188 140.089844 C 135.867188 140.949219 136.976562 141.195312 138.824219 141.691406 C 140.917969 142.058594 143.257812 142.796875 143.257812 145.382812 C 143.257812 147.105469 141.777344 149.445312 138.207031 149.445312 C 135.621094 149.324219 133.777344 148.335938 132.667969 146.492188 M 150.519531 143.535156 L 148.425781 145.875 L 148.425781 149.078125 L 145.71875 149.078125 L 145.71875 130.855469 L 148.425781 130.855469 L 148.425781 142.796875 L 154.089844 136.640625 L 157.292969 136.640625 L 152.367188 141.9375 L 157.414062 149.078125 L 154.335938 149.078125 Z M 94.625 136.273438 C 91.425781 136.273438 88.839844 138.367188 88.839844 141.691406 L 88.839844 148.953125 L 91.546875 148.953125 L 91.546875 142.058594 C 91.546875 139.964844 92.65625 138.734375 94.75 138.734375 C 96.839844 138.734375 97.703125 139.964844 97.703125 142.058594 L 97.703125 148.953125 L 100.410156 148.953125 L 100.410156 141.691406 C 100.410156 138.367188 97.703125 136.273438 94.625 136.273438 " fill-opacity="1" fill-rule="nonzero"/></g></svg>